<mxfile host="app.diagrams.net" modified="2022-12-02T12:05:35.100Z" agent="5.0 (Windows NT 10.0; Win64; x64) AppleWebKit/537.36 (KHTML, like Gecko) Chrome/106.0.0.0 Safari/537.36 OPR/92.0.0.0" etag="BuaeQV_mWjE-1lR1QiJu" version="20.6.0" type="github">
  <diagram id="C5RBs43oDa-KdzZeNtuy" name="Page-1">
    <mxGraphModel dx="2983" dy="1010" grid="1" gridSize="10" guides="1" tooltips="1" connect="1" arrows="1" fold="1" page="1" pageScale="1" pageWidth="827" pageHeight="1169" math="0" shadow="0">
      <root>
        <mxCell id="WIyWlLk6GJQsqaUBKTNV-0" />
        <mxCell id="WIyWlLk6GJQsqaUBKTNV-1" parent="WIyWlLk6GJQsqaUBKTNV-0" />
        <mxCell id="N38WtRVTKWSG2oZ_eV62-8" value="" style="endArrow=none;dashed=1;html=1;rounded=0;entryX=0.5;entryY=1;entryDx=0;entryDy=0;exitX=1;exitY=0.5;exitDx=0;exitDy=0;fillColor=#660000;strokeColor=#660000;" parent="WIyWlLk6GJQsqaUBKTNV-1" source="jx4LFwp-OBBai578u4oB-44" target="N38WtRVTKWSG2oZ_eV62-4" edge="1">
          <mxGeometry width="50" height="50" relative="1" as="geometry">
            <mxPoint x="1400" y="530" as="sourcePoint" />
            <mxPoint x="1450" y="480" as="targetPoint" />
            <Array as="points">
              <mxPoint x="1714" y="350" />
            </Array>
          </mxGeometry>
        </mxCell>
        <mxCell id="jx4LFwp-OBBai578u4oB-67" style="edgeStyle=orthogonalEdgeStyle;rounded=0;orthogonalLoop=1;jettySize=auto;html=1;entryX=0.5;entryY=0;entryDx=0;entryDy=0;exitX=0.5;exitY=1;exitDx=0;exitDy=0;" parent="WIyWlLk6GJQsqaUBKTNV-1" source="X6m0LNsTIrMTmhEbzn1Y-8" target="X6m0LNsTIrMTmhEbzn1Y-15" edge="1">
          <mxGeometry relative="1" as="geometry" />
        </mxCell>
        <mxCell id="jx4LFwp-OBBai578u4oB-74" style="edgeStyle=orthogonalEdgeStyle;rounded=0;orthogonalLoop=1;jettySize=auto;html=1;exitX=0.5;exitY=1;exitDx=0;exitDy=0;" parent="WIyWlLk6GJQsqaUBKTNV-1" source="X6m0LNsTIrMTmhEbzn1Y-8" target="X6m0LNsTIrMTmhEbzn1Y-19" edge="1">
          <mxGeometry relative="1" as="geometry" />
        </mxCell>
        <mxCell id="jx4LFwp-OBBai578u4oB-75" style="edgeStyle=orthogonalEdgeStyle;rounded=0;orthogonalLoop=1;jettySize=auto;html=1;entryX=0.5;entryY=0;entryDx=0;entryDy=0;exitX=0.5;exitY=1;exitDx=0;exitDy=0;" parent="WIyWlLk6GJQsqaUBKTNV-1" source="X6m0LNsTIrMTmhEbzn1Y-8" target="jx4LFwp-OBBai578u4oB-64" edge="1">
          <mxGeometry relative="1" as="geometry" />
        </mxCell>
        <mxCell id="X6m0LNsTIrMTmhEbzn1Y-8" value="Game Elements" style="rounded=1;whiteSpace=wrap;html=1;arcSize=24;" parent="WIyWlLk6GJQsqaUBKTNV-1" vertex="1">
          <mxGeometry x="770" y="30" width="120" height="40" as="geometry" />
        </mxCell>
        <mxCell id="A_jg6QtYTX-o13DUDRs6-0" value="" style="edgeStyle=orthogonalEdgeStyle;rounded=0;orthogonalLoop=1;jettySize=auto;html=1;" parent="WIyWlLk6GJQsqaUBKTNV-1" source="X6m0LNsTIrMTmhEbzn1Y-15" target="LVBtN3Xu9n1xNQjiw8Hy-2" edge="1">
          <mxGeometry relative="1" as="geometry" />
        </mxCell>
        <mxCell id="X6m0LNsTIrMTmhEbzn1Y-15" value="Start Menu" style="rounded=1;whiteSpace=wrap;html=1;fillColor=#FFE599;" parent="WIyWlLk6GJQsqaUBKTNV-1" vertex="1">
          <mxGeometry x="234" y="120" width="120" height="40" as="geometry" />
        </mxCell>
        <mxCell id="jx4LFwp-OBBai578u4oB-3" style="edgeStyle=orthogonalEdgeStyle;rounded=0;orthogonalLoop=1;jettySize=auto;html=1;exitX=1;exitY=0.5;exitDx=0;exitDy=0;entryX=0;entryY=0.5;entryDx=0;entryDy=0;" parent="WIyWlLk6GJQsqaUBKTNV-1" source="X6m0LNsTIrMTmhEbzn1Y-16" target="jx4LFwp-OBBai578u4oB-2" edge="1">
          <mxGeometry relative="1" as="geometry" />
        </mxCell>
        <mxCell id="jx4LFwp-OBBai578u4oB-53" style="edgeStyle=orthogonalEdgeStyle;rounded=0;orthogonalLoop=1;jettySize=auto;html=1;exitX=1;exitY=0.5;exitDx=0;exitDy=0;entryX=0;entryY=0.5;entryDx=0;entryDy=0;" parent="WIyWlLk6GJQsqaUBKTNV-1" source="X6m0LNsTIrMTmhEbzn1Y-16" target="jx4LFwp-OBBai578u4oB-4" edge="1">
          <mxGeometry relative="1" as="geometry" />
        </mxCell>
        <mxCell id="X6m0LNsTIrMTmhEbzn1Y-16" value="Online Gameplay" style="rounded=1;whiteSpace=wrap;html=1;fillColor=#FFE599;" parent="WIyWlLk6GJQsqaUBKTNV-1" vertex="1">
          <mxGeometry x="234" y="160" width="120" height="40" as="geometry" />
        </mxCell>
        <mxCell id="jx4LFwp-OBBai578u4oB-26" style="edgeStyle=orthogonalEdgeStyle;rounded=0;orthogonalLoop=1;jettySize=auto;html=1;exitX=0.5;exitY=1;exitDx=0;exitDy=0;" parent="WIyWlLk6GJQsqaUBKTNV-1" source="X6m0LNsTIrMTmhEbzn1Y-17" target="jx4LFwp-OBBai578u4oB-25" edge="1">
          <mxGeometry relative="1" as="geometry" />
        </mxCell>
        <mxCell id="X6m0LNsTIrMTmhEbzn1Y-17" value="Main Window" style="rounded=1;whiteSpace=wrap;html=1;fillColor=#FFE599;" parent="WIyWlLk6GJQsqaUBKTNV-1" vertex="1">
          <mxGeometry x="234" y="200" width="120" height="40" as="geometry" />
        </mxCell>
        <mxCell id="jx4LFwp-OBBai578u4oB-8" style="edgeStyle=orthogonalEdgeStyle;rounded=0;orthogonalLoop=1;jettySize=auto;html=1;exitX=0.5;exitY=1;exitDx=0;exitDy=0;entryX=0.5;entryY=0;entryDx=0;entryDy=0;" parent="WIyWlLk6GJQsqaUBKTNV-1" source="X6m0LNsTIrMTmhEbzn1Y-19" target="X6m0LNsTIrMTmhEbzn1Y-24" edge="1">
          <mxGeometry relative="1" as="geometry">
            <Array as="points">
              <mxPoint x="1000" y="170" />
              <mxPoint x="1040" y="170" />
            </Array>
          </mxGeometry>
        </mxCell>
        <mxCell id="X6m0LNsTIrMTmhEbzn1Y-19" value="Abstract Elements" style="rounded=1;whiteSpace=wrap;html=1;" parent="WIyWlLk6GJQsqaUBKTNV-1" vertex="1">
          <mxGeometry x="940" y="120" width="120" height="40" as="geometry" />
        </mxCell>
        <mxCell id="X6m0LNsTIrMTmhEbzn1Y-21" value="Roleplaying Phase&lt;br&gt;" style="rounded=1;whiteSpace=wrap;html=1;" parent="WIyWlLk6GJQsqaUBKTNV-1" vertex="1">
          <mxGeometry x="1010" y="260" width="120" height="40" as="geometry" />
        </mxCell>
        <mxCell id="X6m0LNsTIrMTmhEbzn1Y-22" value="Combat Phase" style="rounded=1;whiteSpace=wrap;html=1;" parent="WIyWlLk6GJQsqaUBKTNV-1" vertex="1">
          <mxGeometry x="1010" y="300" width="120" height="40" as="geometry" />
        </mxCell>
        <mxCell id="jx4LFwp-OBBai578u4oB-10" style="edgeStyle=orthogonalEdgeStyle;rounded=0;orthogonalLoop=1;jettySize=auto;html=1;exitX=0.5;exitY=1;exitDx=0;exitDy=0;" parent="WIyWlLk6GJQsqaUBKTNV-1" source="X6m0LNsTIrMTmhEbzn1Y-23" target="jx4LFwp-OBBai578u4oB-9" edge="1">
          <mxGeometry relative="1" as="geometry" />
        </mxCell>
        <mxCell id="X6m0LNsTIrMTmhEbzn1Y-23" value="Preparation Phase" style="rounded=1;whiteSpace=wrap;html=1;" parent="WIyWlLk6GJQsqaUBKTNV-1" vertex="1">
          <mxGeometry x="1010" y="340" width="120" height="40" as="geometry" />
        </mxCell>
        <mxCell id="X6m0LNsTIrMTmhEbzn1Y-24" value="Switching Phases" style="rounded=1;whiteSpace=wrap;html=1;" parent="WIyWlLk6GJQsqaUBKTNV-1" vertex="1">
          <mxGeometry x="980" y="180" width="120" height="40" as="geometry" />
        </mxCell>
        <mxCell id="X6m0LNsTIrMTmhEbzn1Y-34" value="" style="endArrow=classic;html=1;rounded=0;exitX=0.5;exitY=1;exitDx=0;exitDy=0;entryX=0;entryY=0.5;entryDx=0;entryDy=0;" parent="WIyWlLk6GJQsqaUBKTNV-1" source="X6m0LNsTIrMTmhEbzn1Y-24" target="X6m0LNsTIrMTmhEbzn1Y-21" edge="1">
          <mxGeometry width="50" height="50" relative="1" as="geometry">
            <mxPoint x="980" y="240" as="sourcePoint" />
            <mxPoint x="980" y="340" as="targetPoint" />
            <Array as="points">
              <mxPoint x="1040" y="240" />
              <mxPoint x="980" y="240" />
              <mxPoint x="980" y="280" />
            </Array>
          </mxGeometry>
        </mxCell>
        <mxCell id="X6m0LNsTIrMTmhEbzn1Y-35" value="" style="endArrow=classic;html=1;rounded=0;entryX=0;entryY=0.5;entryDx=0;entryDy=0;" parent="WIyWlLk6GJQsqaUBKTNV-1" target="X6m0LNsTIrMTmhEbzn1Y-23" edge="1">
          <mxGeometry width="50" height="50" relative="1" as="geometry">
            <mxPoint x="980" y="240" as="sourcePoint" />
            <mxPoint x="1017" y="270" as="targetPoint" />
            <Array as="points">
              <mxPoint x="980" y="360" />
            </Array>
          </mxGeometry>
        </mxCell>
        <mxCell id="X6m0LNsTIrMTmhEbzn1Y-38" value="" style="endArrow=classic;html=1;rounded=0;entryX=0;entryY=0.5;entryDx=0;entryDy=0;" parent="WIyWlLk6GJQsqaUBKTNV-1" target="X6m0LNsTIrMTmhEbzn1Y-22" edge="1">
          <mxGeometry width="50" height="50" relative="1" as="geometry">
            <mxPoint x="980" y="240" as="sourcePoint" />
            <mxPoint x="1027" y="280" as="targetPoint" />
            <Array as="points">
              <mxPoint x="980" y="320" />
            </Array>
          </mxGeometry>
        </mxCell>
        <mxCell id="X6m0LNsTIrMTmhEbzn1Y-41" value="" style="endArrow=classic;html=1;rounded=0;exitX=0.5;exitY=1;exitDx=0;exitDy=0;" parent="WIyWlLk6GJQsqaUBKTNV-1" source="X6m0LNsTIrMTmhEbzn1Y-17" edge="1">
          <mxGeometry width="50" height="50" relative="1" as="geometry">
            <mxPoint x="410" y="320" as="sourcePoint" />
            <mxPoint x="294" y="320" as="targetPoint" />
          </mxGeometry>
        </mxCell>
        <mxCell id="jx4LFwp-OBBai578u4oB-14" style="edgeStyle=orthogonalEdgeStyle;rounded=0;orthogonalLoop=1;jettySize=auto;html=1;exitX=0.5;exitY=1;exitDx=0;exitDy=0;" parent="WIyWlLk6GJQsqaUBKTNV-1" source="X6m0LNsTIrMTmhEbzn1Y-42" target="jx4LFwp-OBBai578u4oB-13" edge="1">
          <mxGeometry relative="1" as="geometry" />
        </mxCell>
        <mxCell id="jx4LFwp-OBBai578u4oB-16" style="edgeStyle=orthogonalEdgeStyle;rounded=0;orthogonalLoop=1;jettySize=auto;html=1;exitX=0.5;exitY=1;exitDx=0;exitDy=0;" parent="WIyWlLk6GJQsqaUBKTNV-1" source="X6m0LNsTIrMTmhEbzn1Y-42" target="jx4LFwp-OBBai578u4oB-15" edge="1">
          <mxGeometry relative="1" as="geometry" />
        </mxCell>
        <mxCell id="jx4LFwp-OBBai578u4oB-18" style="edgeStyle=orthogonalEdgeStyle;rounded=0;orthogonalLoop=1;jettySize=auto;html=1;exitX=0.5;exitY=1;exitDx=0;exitDy=0;" parent="WIyWlLk6GJQsqaUBKTNV-1" source="X6m0LNsTIrMTmhEbzn1Y-42" target="jx4LFwp-OBBai578u4oB-17" edge="1">
          <mxGeometry relative="1" as="geometry" />
        </mxCell>
        <mxCell id="jx4LFwp-OBBai578u4oB-20" style="edgeStyle=orthogonalEdgeStyle;rounded=0;orthogonalLoop=1;jettySize=auto;html=1;exitX=0.5;exitY=1;exitDx=0;exitDy=0;" parent="WIyWlLk6GJQsqaUBKTNV-1" source="X6m0LNsTIrMTmhEbzn1Y-42" target="jx4LFwp-OBBai578u4oB-19" edge="1">
          <mxGeometry relative="1" as="geometry" />
        </mxCell>
        <mxCell id="A_jg6QtYTX-o13DUDRs6-1" value="" style="edgeStyle=orthogonalEdgeStyle;rounded=0;orthogonalLoop=1;jettySize=auto;html=1;" parent="WIyWlLk6GJQsqaUBKTNV-1" source="X6m0LNsTIrMTmhEbzn1Y-42" target="jx4LFwp-OBBai578u4oB-15" edge="1">
          <mxGeometry relative="1" as="geometry" />
        </mxCell>
        <mxCell id="X6m0LNsTIrMTmhEbzn1Y-42" value="Playing Field" style="rounded=1;whiteSpace=wrap;html=1;fillColor=#FFE599;" parent="WIyWlLk6GJQsqaUBKTNV-1" vertex="1">
          <mxGeometry x="234" y="320" width="120" height="40" as="geometry" />
        </mxCell>
        <mxCell id="jx4LFwp-OBBai578u4oB-0" value="" style="rounded=1;whiteSpace=wrap;html=1;fillColor=#FFE599;" parent="WIyWlLk6GJQsqaUBKTNV-1" vertex="1">
          <mxGeometry x="120" y="15" width="20" height="20" as="geometry" />
        </mxCell>
        <mxCell id="jx4LFwp-OBBai578u4oB-5" style="edgeStyle=orthogonalEdgeStyle;rounded=0;orthogonalLoop=1;jettySize=auto;html=1;" parent="WIyWlLk6GJQsqaUBKTNV-1" source="jx4LFwp-OBBai578u4oB-2" target="jx4LFwp-OBBai578u4oB-4" edge="1">
          <mxGeometry relative="1" as="geometry" />
        </mxCell>
        <mxCell id="jx4LFwp-OBBai578u4oB-2" value="Chat" style="rounded=1;whiteSpace=wrap;html=1;" parent="WIyWlLk6GJQsqaUBKTNV-1" vertex="1">
          <mxGeometry x="400" y="180" width="120" height="40" as="geometry" />
        </mxCell>
        <mxCell id="jx4LFwp-OBBai578u4oB-4" value="Voice Chat" style="rounded=1;whiteSpace=wrap;html=1;" parent="WIyWlLk6GJQsqaUBKTNV-1" vertex="1">
          <mxGeometry x="400" y="220" width="120" height="40" as="geometry" />
        </mxCell>
        <mxCell id="jx4LFwp-OBBai578u4oB-12" style="edgeStyle=orthogonalEdgeStyle;rounded=0;orthogonalLoop=1;jettySize=auto;html=1;exitX=0.5;exitY=1;exitDx=0;exitDy=0;" parent="WIyWlLk6GJQsqaUBKTNV-1" source="jx4LFwp-OBBai578u4oB-9" target="jx4LFwp-OBBai578u4oB-11" edge="1">
          <mxGeometry relative="1" as="geometry" />
        </mxCell>
        <mxCell id="jx4LFwp-OBBai578u4oB-9" value="Character Builder" style="rounded=1;whiteSpace=wrap;html=1;" parent="WIyWlLk6GJQsqaUBKTNV-1" vertex="1">
          <mxGeometry x="1110" y="420" width="120" height="40" as="geometry" />
        </mxCell>
        <mxCell id="jx4LFwp-OBBai578u4oB-11" value="Map Builder" style="rounded=1;whiteSpace=wrap;html=1;" parent="WIyWlLk6GJQsqaUBKTNV-1" vertex="1">
          <mxGeometry x="1110" y="460" width="120" height="40" as="geometry" />
        </mxCell>
        <mxCell id="Cl5gu3eHejJXQflmZrxa-3" style="edgeStyle=orthogonalEdgeStyle;rounded=0;orthogonalLoop=1;jettySize=auto;html=1;" edge="1" parent="WIyWlLk6GJQsqaUBKTNV-1" source="jx4LFwp-OBBai578u4oB-13" target="Cl5gu3eHejJXQflmZrxa-2">
          <mxGeometry relative="1" as="geometry" />
        </mxCell>
        <mxCell id="jx4LFwp-OBBai578u4oB-13" value="Movement" style="rounded=1;whiteSpace=wrap;html=1;" parent="WIyWlLk6GJQsqaUBKTNV-1" vertex="1">
          <mxGeometry x="140" y="400" width="120" height="40" as="geometry" />
        </mxCell>
        <mxCell id="jx4LFwp-OBBai578u4oB-22" style="edgeStyle=orthogonalEdgeStyle;rounded=0;orthogonalLoop=1;jettySize=auto;html=1;exitX=0.5;exitY=1;exitDx=0;exitDy=0;entryX=0;entryY=0.5;entryDx=0;entryDy=0;" parent="WIyWlLk6GJQsqaUBKTNV-1" source="jx4LFwp-OBBai578u4oB-15" target="jx4LFwp-OBBai578u4oB-21" edge="1">
          <mxGeometry relative="1" as="geometry" />
        </mxCell>
        <mxCell id="jx4LFwp-OBBai578u4oB-59" style="edgeStyle=orthogonalEdgeStyle;rounded=0;orthogonalLoop=1;jettySize=auto;html=1;entryX=0;entryY=0.5;entryDx=0;entryDy=0;" parent="WIyWlLk6GJQsqaUBKTNV-1" source="jx4LFwp-OBBai578u4oB-15" target="jx4LFwp-OBBai578u4oB-57" edge="1">
          <mxGeometry relative="1" as="geometry" />
        </mxCell>
        <mxCell id="jx4LFwp-OBBai578u4oB-15" value="Map" style="rounded=1;whiteSpace=wrap;html=1;fillColor=#FFE599;" parent="WIyWlLk6GJQsqaUBKTNV-1" vertex="1">
          <mxGeometry x="260" y="400" width="120" height="40" as="geometry" />
        </mxCell>
        <mxCell id="jx4LFwp-OBBai578u4oB-63" style="edgeStyle=orthogonalEdgeStyle;rounded=0;orthogonalLoop=1;jettySize=auto;html=1;entryX=0;entryY=0.5;entryDx=0;entryDy=0;" parent="WIyWlLk6GJQsqaUBKTNV-1" source="jx4LFwp-OBBai578u4oB-17" target="jx4LFwp-OBBai578u4oB-62" edge="1">
          <mxGeometry relative="1" as="geometry" />
        </mxCell>
        <mxCell id="jx4LFwp-OBBai578u4oB-17" value="Combat" style="rounded=1;whiteSpace=wrap;html=1;" parent="WIyWlLk6GJQsqaUBKTNV-1" vertex="1">
          <mxGeometry x="380" y="400" width="120" height="40" as="geometry" />
        </mxCell>
        <mxCell id="jx4LFwp-OBBai578u4oB-19" value="Vision Mechanics" style="rounded=1;whiteSpace=wrap;html=1;" parent="WIyWlLk6GJQsqaUBKTNV-1" vertex="1">
          <mxGeometry x="20" y="400" width="120" height="40" as="geometry" />
        </mxCell>
        <mxCell id="jx4LFwp-OBBai578u4oB-21" value="Zooming in/out" style="rounded=1;whiteSpace=wrap;html=1;" parent="WIyWlLk6GJQsqaUBKTNV-1" vertex="1">
          <mxGeometry x="364" y="590" width="120" height="40" as="geometry" />
        </mxCell>
        <mxCell id="jx4LFwp-OBBai578u4oB-28" style="edgeStyle=orthogonalEdgeStyle;rounded=0;orthogonalLoop=1;jettySize=auto;html=1;" parent="WIyWlLk6GJQsqaUBKTNV-1" source="jx4LFwp-OBBai578u4oB-25" target="jx4LFwp-OBBai578u4oB-27" edge="1">
          <mxGeometry relative="1" as="geometry">
            <Array as="points">
              <mxPoint x="700" y="420" />
            </Array>
          </mxGeometry>
        </mxCell>
        <mxCell id="jx4LFwp-OBBai578u4oB-30" style="edgeStyle=orthogonalEdgeStyle;rounded=0;orthogonalLoop=1;jettySize=auto;html=1;entryX=0;entryY=0.5;entryDx=0;entryDy=0;" parent="WIyWlLk6GJQsqaUBKTNV-1" source="jx4LFwp-OBBai578u4oB-25" target="jx4LFwp-OBBai578u4oB-29" edge="1">
          <mxGeometry relative="1" as="geometry" />
        </mxCell>
        <mxCell id="jx4LFwp-OBBai578u4oB-32" style="edgeStyle=orthogonalEdgeStyle;rounded=0;orthogonalLoop=1;jettySize=auto;html=1;" parent="WIyWlLk6GJQsqaUBKTNV-1" source="jx4LFwp-OBBai578u4oB-25" target="jx4LFwp-OBBai578u4oB-31" edge="1">
          <mxGeometry relative="1" as="geometry" />
        </mxCell>
        <mxCell id="jx4LFwp-OBBai578u4oB-33" style="edgeStyle=orthogonalEdgeStyle;rounded=0;orthogonalLoop=1;jettySize=auto;html=1;exitX=0.5;exitY=1;exitDx=0;exitDy=0;entryX=0;entryY=0.5;entryDx=0;entryDy=0;" parent="WIyWlLk6GJQsqaUBKTNV-1" source="jx4LFwp-OBBai578u4oB-25" target="jx4LFwp-OBBai578u4oB-31" edge="1">
          <mxGeometry relative="1" as="geometry" />
        </mxCell>
        <mxCell id="jx4LFwp-OBBai578u4oB-37" style="edgeStyle=orthogonalEdgeStyle;rounded=0;orthogonalLoop=1;jettySize=auto;html=1;exitX=0.5;exitY=1;exitDx=0;exitDy=0;entryX=0;entryY=0.5;entryDx=0;entryDy=0;" parent="WIyWlLk6GJQsqaUBKTNV-1" source="jx4LFwp-OBBai578u4oB-25" target="jx4LFwp-OBBai578u4oB-34" edge="1">
          <mxGeometry relative="1" as="geometry" />
        </mxCell>
        <mxCell id="jx4LFwp-OBBai578u4oB-45" style="edgeStyle=orthogonalEdgeStyle;rounded=0;orthogonalLoop=1;jettySize=auto;html=1;exitX=0.5;exitY=1;exitDx=0;exitDy=0;" parent="WIyWlLk6GJQsqaUBKTNV-1" source="jx4LFwp-OBBai578u4oB-25" target="jx4LFwp-OBBai578u4oB-44" edge="1">
          <mxGeometry relative="1" as="geometry" />
        </mxCell>
        <mxCell id="jx4LFwp-OBBai578u4oB-46" style="edgeStyle=orthogonalEdgeStyle;rounded=0;orthogonalLoop=1;jettySize=auto;html=1;exitX=0.5;exitY=1;exitDx=0;exitDy=0;entryX=0;entryY=0.5;entryDx=0;entryDy=0;" parent="WIyWlLk6GJQsqaUBKTNV-1" source="jx4LFwp-OBBai578u4oB-25" target="jx4LFwp-OBBai578u4oB-44" edge="1">
          <mxGeometry relative="1" as="geometry" />
        </mxCell>
        <mxCell id="jx4LFwp-OBBai578u4oB-25" value="Character" style="rounded=1;whiteSpace=wrap;html=1;" parent="WIyWlLk6GJQsqaUBKTNV-1" vertex="1">
          <mxGeometry x="640" y="320" width="120" height="40" as="geometry" />
        </mxCell>
        <mxCell id="jx4LFwp-OBBai578u4oB-27" value="Class" style="rounded=1;whiteSpace=wrap;html=1;" parent="WIyWlLk6GJQsqaUBKTNV-1" vertex="1">
          <mxGeometry x="750" y="400" width="120" height="40" as="geometry" />
        </mxCell>
        <mxCell id="jx4LFwp-OBBai578u4oB-29" value="Race" style="rounded=1;whiteSpace=wrap;html=1;" parent="WIyWlLk6GJQsqaUBKTNV-1" vertex="1">
          <mxGeometry x="750" y="440" width="120" height="40" as="geometry" />
        </mxCell>
        <mxCell id="jx4LFwp-OBBai578u4oB-31" value="Spells" style="rounded=1;whiteSpace=wrap;html=1;" parent="WIyWlLk6GJQsqaUBKTNV-1" vertex="1">
          <mxGeometry x="750" y="480" width="120" height="40" as="geometry" />
        </mxCell>
        <mxCell id="jx4LFwp-OBBai578u4oB-39" style="edgeStyle=orthogonalEdgeStyle;rounded=0;orthogonalLoop=1;jettySize=auto;html=1;exitX=1;exitY=0.5;exitDx=0;exitDy=0;entryX=0;entryY=0.5;entryDx=0;entryDy=0;" parent="WIyWlLk6GJQsqaUBKTNV-1" source="jx4LFwp-OBBai578u4oB-34" target="jx4LFwp-OBBai578u4oB-38" edge="1">
          <mxGeometry relative="1" as="geometry" />
        </mxCell>
        <mxCell id="jx4LFwp-OBBai578u4oB-41" style="edgeStyle=orthogonalEdgeStyle;rounded=0;orthogonalLoop=1;jettySize=auto;html=1;exitX=1;exitY=0.5;exitDx=0;exitDy=0;entryX=0;entryY=0.5;entryDx=0;entryDy=0;" parent="WIyWlLk6GJQsqaUBKTNV-1" source="jx4LFwp-OBBai578u4oB-34" target="jx4LFwp-OBBai578u4oB-40" edge="1">
          <mxGeometry relative="1" as="geometry" />
        </mxCell>
        <mxCell id="jx4LFwp-OBBai578u4oB-43" style="edgeStyle=orthogonalEdgeStyle;rounded=0;orthogonalLoop=1;jettySize=auto;html=1;exitX=1;exitY=0.5;exitDx=0;exitDy=0;entryX=0;entryY=0.5;entryDx=0;entryDy=0;" parent="WIyWlLk6GJQsqaUBKTNV-1" source="jx4LFwp-OBBai578u4oB-34" target="jx4LFwp-OBBai578u4oB-42" edge="1">
          <mxGeometry relative="1" as="geometry" />
        </mxCell>
        <mxCell id="jx4LFwp-OBBai578u4oB-34" value="Items" style="rounded=1;whiteSpace=wrap;html=1;" parent="WIyWlLk6GJQsqaUBKTNV-1" vertex="1">
          <mxGeometry x="750" y="520" width="120" height="40" as="geometry" />
        </mxCell>
        <mxCell id="jx4LFwp-OBBai578u4oB-38" value="Weapons" style="rounded=1;whiteSpace=wrap;html=1;" parent="WIyWlLk6GJQsqaUBKTNV-1" vertex="1">
          <mxGeometry x="1020" y="570" width="120" height="40" as="geometry" />
        </mxCell>
        <mxCell id="jx4LFwp-OBBai578u4oB-40" value="Armor" style="rounded=1;whiteSpace=wrap;html=1;" parent="WIyWlLk6GJQsqaUBKTNV-1" vertex="1">
          <mxGeometry x="1020" y="610" width="120" height="40" as="geometry" />
        </mxCell>
        <mxCell id="jx4LFwp-OBBai578u4oB-42" value="Inventory" style="rounded=1;whiteSpace=wrap;html=1;" parent="WIyWlLk6GJQsqaUBKTNV-1" vertex="1">
          <mxGeometry x="1020" y="650" width="120" height="40" as="geometry" />
        </mxCell>
        <mxCell id="jx4LFwp-OBBai578u4oB-48" style="edgeStyle=orthogonalEdgeStyle;rounded=0;orthogonalLoop=1;jettySize=auto;html=1;entryX=0;entryY=0.5;entryDx=0;entryDy=0;" parent="WIyWlLk6GJQsqaUBKTNV-1" source="jx4LFwp-OBBai578u4oB-44" target="jx4LFwp-OBBai578u4oB-47" edge="1">
          <mxGeometry relative="1" as="geometry" />
        </mxCell>
        <mxCell id="ZDpdqGoxNQ8h-dEn4phO-3" style="edgeStyle=orthogonalEdgeStyle;rounded=0;orthogonalLoop=1;jettySize=auto;html=1;entryX=0;entryY=0.5;entryDx=0;entryDy=0;" parent="WIyWlLk6GJQsqaUBKTNV-1" source="jx4LFwp-OBBai578u4oB-44" target="jx4LFwp-OBBai578u4oB-49" edge="1">
          <mxGeometry relative="1" as="geometry" />
        </mxCell>
        <mxCell id="ZDpdqGoxNQ8h-dEn4phO-4" style="edgeStyle=orthogonalEdgeStyle;rounded=0;orthogonalLoop=1;jettySize=auto;html=1;entryX=0;entryY=0.5;entryDx=0;entryDy=0;" parent="WIyWlLk6GJQsqaUBKTNV-1" source="jx4LFwp-OBBai578u4oB-44" target="jx4LFwp-OBBai578u4oB-50" edge="1">
          <mxGeometry relative="1" as="geometry" />
        </mxCell>
        <mxCell id="ZDpdqGoxNQ8h-dEn4phO-5" style="edgeStyle=orthogonalEdgeStyle;rounded=0;orthogonalLoop=1;jettySize=auto;html=1;entryX=0;entryY=0.5;entryDx=0;entryDy=0;" parent="WIyWlLk6GJQsqaUBKTNV-1" source="jx4LFwp-OBBai578u4oB-44" target="jx4LFwp-OBBai578u4oB-51" edge="1">
          <mxGeometry relative="1" as="geometry" />
        </mxCell>
        <mxCell id="jx4LFwp-OBBai578u4oB-44" value="Character Sheet Overview" style="rounded=1;whiteSpace=wrap;html=1;fillColor=#FFE599;" parent="WIyWlLk6GJQsqaUBKTNV-1" vertex="1">
          <mxGeometry x="750" y="560" width="120" height="50" as="geometry" />
        </mxCell>
        <mxCell id="jx4LFwp-OBBai578u4oB-52" style="edgeStyle=orthogonalEdgeStyle;rounded=0;orthogonalLoop=1;jettySize=auto;html=1;exitX=0.75;exitY=1;exitDx=0;exitDy=0;" parent="WIyWlLk6GJQsqaUBKTNV-1" source="jx4LFwp-OBBai578u4oB-47" target="jx4LFwp-OBBai578u4oB-51" edge="1">
          <mxGeometry relative="1" as="geometry" />
        </mxCell>
        <mxCell id="jx4LFwp-OBBai578u4oB-47" value="Saving Throws" style="rounded=1;whiteSpace=wrap;html=1;" parent="WIyWlLk6GJQsqaUBKTNV-1" vertex="1">
          <mxGeometry x="870" y="735" width="120" height="50" as="geometry" />
        </mxCell>
        <mxCell id="jx4LFwp-OBBai578u4oB-49" value="Ability Scores" style="rounded=1;whiteSpace=wrap;html=1;" parent="WIyWlLk6GJQsqaUBKTNV-1" vertex="1">
          <mxGeometry x="870" y="785" width="120" height="50" as="geometry" />
        </mxCell>
        <mxCell id="jx4LFwp-OBBai578u4oB-50" value="Skills" style="rounded=1;whiteSpace=wrap;html=1;" parent="WIyWlLk6GJQsqaUBKTNV-1" vertex="1">
          <mxGeometry x="870" y="835" width="120" height="50" as="geometry" />
        </mxCell>
        <mxCell id="jx4LFwp-OBBai578u4oB-51" value="Class Features" style="rounded=1;whiteSpace=wrap;html=1;" parent="WIyWlLk6GJQsqaUBKTNV-1" vertex="1">
          <mxGeometry x="870" y="885" width="120" height="50" as="geometry" />
        </mxCell>
        <mxCell id="jx4LFwp-OBBai578u4oB-57" value="Walls" style="rounded=1;whiteSpace=wrap;html=1;" parent="WIyWlLk6GJQsqaUBKTNV-1" vertex="1">
          <mxGeometry x="364" y="550" width="120" height="40" as="geometry" />
        </mxCell>
        <mxCell id="jx4LFwp-OBBai578u4oB-62" value="Hitpoint Alteration" style="rounded=1;whiteSpace=wrap;html=1;" parent="WIyWlLk6GJQsqaUBKTNV-1" vertex="1">
          <mxGeometry x="500" y="480" width="120" height="40" as="geometry" />
        </mxCell>
        <mxCell id="jx4LFwp-OBBai578u4oB-69" style="edgeStyle=orthogonalEdgeStyle;rounded=0;orthogonalLoop=1;jettySize=auto;html=1;entryX=0;entryY=0.5;entryDx=0;entryDy=0;" parent="WIyWlLk6GJQsqaUBKTNV-1" source="jx4LFwp-OBBai578u4oB-64" target="jx4LFwp-OBBai578u4oB-68" edge="1">
          <mxGeometry relative="1" as="geometry" />
        </mxCell>
        <mxCell id="jx4LFwp-OBBai578u4oB-72" style="edgeStyle=orthogonalEdgeStyle;rounded=0;orthogonalLoop=1;jettySize=auto;html=1;entryX=0;entryY=0.5;entryDx=0;entryDy=0;" parent="WIyWlLk6GJQsqaUBKTNV-1" source="jx4LFwp-OBBai578u4oB-64" target="jx4LFwp-OBBai578u4oB-70" edge="1">
          <mxGeometry relative="1" as="geometry" />
        </mxCell>
        <mxCell id="jx4LFwp-OBBai578u4oB-73" style="edgeStyle=orthogonalEdgeStyle;rounded=0;orthogonalLoop=1;jettySize=auto;html=1;entryX=0;entryY=0.5;entryDx=0;entryDy=0;" parent="WIyWlLk6GJQsqaUBKTNV-1" source="jx4LFwp-OBBai578u4oB-64" target="jx4LFwp-OBBai578u4oB-71" edge="1">
          <mxGeometry relative="1" as="geometry" />
        </mxCell>
        <mxCell id="jx4LFwp-OBBai578u4oB-64" value="GUI Windows" style="rounded=1;whiteSpace=wrap;html=1;arcSize=24;fillColor=#FFE599;" parent="WIyWlLk6GJQsqaUBKTNV-1" vertex="1">
          <mxGeometry x="1330" y="120" width="120" height="40" as="geometry" />
        </mxCell>
        <mxCell id="N38WtRVTKWSG2oZ_eV62-3" style="edgeStyle=orthogonalEdgeStyle;rounded=0;orthogonalLoop=1;jettySize=auto;html=1;" parent="WIyWlLk6GJQsqaUBKTNV-1" source="jx4LFwp-OBBai578u4oB-68" target="N38WtRVTKWSG2oZ_eV62-2" edge="1">
          <mxGeometry relative="1" as="geometry" />
        </mxCell>
        <mxCell id="jx4LFwp-OBBai578u4oB-68" value="Chat" style="rounded=1;whiteSpace=wrap;html=1;arcSize=24;fillColor=#FFE599;" parent="WIyWlLk6GJQsqaUBKTNV-1" vertex="1">
          <mxGeometry x="1420" y="210" width="120" height="40" as="geometry" />
        </mxCell>
        <mxCell id="N38WtRVTKWSG2oZ_eV62-1" style="edgeStyle=orthogonalEdgeStyle;rounded=0;orthogonalLoop=1;jettySize=auto;html=1;" parent="WIyWlLk6GJQsqaUBKTNV-1" source="jx4LFwp-OBBai578u4oB-70" target="N38WtRVTKWSG2oZ_eV62-0" edge="1">
          <mxGeometry relative="1" as="geometry" />
        </mxCell>
        <mxCell id="N38WtRVTKWSG2oZ_eV62-5" style="edgeStyle=orthogonalEdgeStyle;rounded=0;orthogonalLoop=1;jettySize=auto;html=1;entryX=0;entryY=0.5;entryDx=0;entryDy=0;" parent="WIyWlLk6GJQsqaUBKTNV-1" source="jx4LFwp-OBBai578u4oB-70" target="N38WtRVTKWSG2oZ_eV62-4" edge="1">
          <mxGeometry relative="1" as="geometry" />
        </mxCell>
        <mxCell id="jx4LFwp-OBBai578u4oB-70" value="Character Options" style="rounded=1;whiteSpace=wrap;html=1;arcSize=24;fillColor=#FFE599;" parent="WIyWlLk6GJQsqaUBKTNV-1" vertex="1">
          <mxGeometry x="1420" y="250" width="120" height="40" as="geometry" />
        </mxCell>
        <mxCell id="jx4LFwp-OBBai578u4oB-71" value="DM Options" style="rounded=1;whiteSpace=wrap;html=1;arcSize=24;fillColor=#FFE599;" parent="WIyWlLk6GJQsqaUBKTNV-1" vertex="1">
          <mxGeometry x="1420" y="290" width="120" height="40" as="geometry" />
        </mxCell>
        <mxCell id="LVBtN3Xu9n1xNQjiw8Hy-1" value="UI elements:" style="text;html=1;align=center;verticalAlign=middle;resizable=0;points=[];autosize=1;strokeColor=none;fillColor=none;" parent="WIyWlLk6GJQsqaUBKTNV-1" vertex="1">
          <mxGeometry y="10" width="90" height="30" as="geometry" />
        </mxCell>
        <mxCell id="LVBtN3Xu9n1xNQjiw8Hy-2" value="Tutorial" style="rounded=1;whiteSpace=wrap;html=1;" parent="WIyWlLk6GJQsqaUBKTNV-1" vertex="1">
          <mxGeometry x="60" y="150" width="120" height="40" as="geometry" />
        </mxCell>
        <mxCell id="LVBtN3Xu9n1xNQjiw8Hy-3" value="Abstract elements:" style="text;html=1;align=center;verticalAlign=middle;resizable=0;points=[];autosize=1;strokeColor=none;fillColor=none;" parent="WIyWlLk6GJQsqaUBKTNV-1" vertex="1">
          <mxGeometry y="40" width="120" height="30" as="geometry" />
        </mxCell>
        <mxCell id="LVBtN3Xu9n1xNQjiw8Hy-4" value="" style="rounded=1;whiteSpace=wrap;html=1;fillColor=#CDA2BE;" parent="WIyWlLk6GJQsqaUBKTNV-1" vertex="1">
          <mxGeometry x="120" y="45" width="20" height="20" as="geometry" />
        </mxCell>
        <mxCell id="Cl5gu3eHejJXQflmZrxa-5" style="edgeStyle=orthogonalEdgeStyle;rounded=0;orthogonalLoop=1;jettySize=auto;html=1;" edge="1" parent="WIyWlLk6GJQsqaUBKTNV-1" source="A_jg6QtYTX-o13DUDRs6-8" target="Cl5gu3eHejJXQflmZrxa-4">
          <mxGeometry relative="1" as="geometry" />
        </mxCell>
        <mxCell id="A_jg6QtYTX-o13DUDRs6-8" value="NPC Builder" style="rounded=1;whiteSpace=wrap;html=1;" parent="WIyWlLk6GJQsqaUBKTNV-1" vertex="1">
          <mxGeometry x="1110" y="500" width="120" height="40" as="geometry" />
        </mxCell>
        <mxCell id="Cl5gu3eHejJXQflmZrxa-1" style="edgeStyle=orthogonalEdgeStyle;rounded=0;orthogonalLoop=1;jettySize=auto;html=1;" edge="1" parent="WIyWlLk6GJQsqaUBKTNV-1" source="N38WtRVTKWSG2oZ_eV62-0" target="Cl5gu3eHejJXQflmZrxa-0">
          <mxGeometry relative="1" as="geometry" />
        </mxCell>
        <mxCell id="N38WtRVTKWSG2oZ_eV62-0" value="Ability to Roll Dice" style="rounded=1;whiteSpace=wrap;html=1;arcSize=24;" parent="WIyWlLk6GJQsqaUBKTNV-1" vertex="1">
          <mxGeometry x="1654" y="290" width="120" height="40" as="geometry" />
        </mxCell>
        <mxCell id="N38WtRVTKWSG2oZ_eV62-2" value="Ability to Chat with all players" style="rounded=1;whiteSpace=wrap;html=1;arcSize=24;" parent="WIyWlLk6GJQsqaUBKTNV-1" vertex="1">
          <mxGeometry x="1690" y="210" width="120" height="40" as="geometry" />
        </mxCell>
        <mxCell id="N38WtRVTKWSG2oZ_eV62-4" value="Ability to Open Character Sheet" style="rounded=1;whiteSpace=wrap;html=1;arcSize=24;" parent="WIyWlLk6GJQsqaUBKTNV-1" vertex="1">
          <mxGeometry x="1654" y="330" width="120" height="40" as="geometry" />
        </mxCell>
        <mxCell id="Cl5gu3eHejJXQflmZrxa-0" value="Animation of Dice Roll" style="rounded=1;whiteSpace=wrap;html=1;arcSize=24;" vertex="1" parent="WIyWlLk6GJQsqaUBKTNV-1">
          <mxGeometry x="1870" y="290" width="120" height="40" as="geometry" />
        </mxCell>
        <mxCell id="Cl5gu3eHejJXQflmZrxa-2" value="Line between old and new token (distance)" style="rounded=1;whiteSpace=wrap;html=1;fillColor=#FFFFFF;" vertex="1" parent="WIyWlLk6GJQsqaUBKTNV-1">
          <mxGeometry x="140" y="490" width="120" height="50" as="geometry" />
        </mxCell>
        <mxCell id="Cl5gu3eHejJXQflmZrxa-4" value="Standard monsters&lt;br&gt;preloaded" style="rounded=1;whiteSpace=wrap;html=1;fillColor=#FFFFFF;" vertex="1" parent="WIyWlLk6GJQsqaUBKTNV-1">
          <mxGeometry x="1290" y="510" width="120" height="40" as="geometry" />
        </mxCell>
      </root>
    </mxGraphModel>
  </diagram>
</mxfile>
